<mxfile host="app.diagrams.net" agent="Mozilla/5.0 (Macintosh; Intel Mac OS X 10_15_7) AppleWebKit/605.1.15 (KHTML, like Gecko) Version/18.0.1 Safari/605.1.15" version="26.2.14">
  <diagram name="Page-1" id="lo1eQ_ZWe9H_lQuyGJs7">
    <mxGraphModel dx="673" dy="463" grid="1" gridSize="10" guides="1" tooltips="1" connect="1" arrows="1" fold="1" page="1" pageScale="1" pageWidth="827" pageHeight="1169" math="0" shadow="0">
      <root>
        <mxCell id="0" />
        <mxCell id="1" parent="0" />
        <mxCell id="InGdNxkoCFOPjOhd-gFK-1" value="" style="rounded=0;whiteSpace=wrap;html=1;" vertex="1" parent="1">
          <mxGeometry x="290" y="50" width="270" height="130" as="geometry" />
        </mxCell>
        <mxCell id="InGdNxkoCFOPjOhd-gFK-2" value="&lt;font style=&quot;font-size: 30px;&quot;&gt;START&lt;/font&gt;" style="text;html=1;align=center;verticalAlign=middle;resizable=0;points=[];autosize=1;strokeColor=none;fillColor=none;" vertex="1" parent="1">
          <mxGeometry x="370" y="90" width="120" height="50" as="geometry" />
        </mxCell>
        <mxCell id="InGdNxkoCFOPjOhd-gFK-3" value="" style="endArrow=classic;html=1;rounded=0;" edge="1" parent="1">
          <mxGeometry width="50" height="50" relative="1" as="geometry">
            <mxPoint x="429.5" y="180" as="sourcePoint" />
            <mxPoint x="430" y="250" as="targetPoint" />
          </mxGeometry>
        </mxCell>
        <mxCell id="InGdNxkoCFOPjOhd-gFK-5" value="FIND THE SUM OF ALL THE NUMBERS." style="rounded=1;whiteSpace=wrap;html=1;" vertex="1" parent="1">
          <mxGeometry x="325" y="260" width="210" height="100" as="geometry" />
        </mxCell>
        <mxCell id="InGdNxkoCFOPjOhd-gFK-6" value="" style="endArrow=classic;html=1;rounded=0;" edge="1" parent="1" target="InGdNxkoCFOPjOhd-gFK-7">
          <mxGeometry width="50" height="50" relative="1" as="geometry">
            <mxPoint x="429.65999999999997" y="360" as="sourcePoint" />
            <mxPoint x="429.65999999999997" y="430" as="targetPoint" />
            <Array as="points">
              <mxPoint x="429.65999999999997" y="400" />
            </Array>
          </mxGeometry>
        </mxCell>
        <mxCell id="InGdNxkoCFOPjOhd-gFK-7" value="DIVIDE THE SUM BY THE AMOUT OF DIGITS" style="rounded=1;whiteSpace=wrap;html=1;" vertex="1" parent="1">
          <mxGeometry x="339.83000000000004" y="460" width="180.34" height="110" as="geometry" />
        </mxCell>
        <mxCell id="InGdNxkoCFOPjOhd-gFK-8" value="" style="endArrow=classic;html=1;rounded=0;" edge="1" parent="1" target="InGdNxkoCFOPjOhd-gFK-9">
          <mxGeometry width="50" height="50" relative="1" as="geometry">
            <mxPoint x="429.65999999999997" y="570" as="sourcePoint" />
            <mxPoint x="429.65999999999997" y="620" as="targetPoint" />
          </mxGeometry>
        </mxCell>
        <mxCell id="InGdNxkoCFOPjOhd-gFK-9" value="PRINT ANSWER" style="rounded=1;whiteSpace=wrap;html=1;" vertex="1" parent="1">
          <mxGeometry x="340.17" y="640" width="180" height="90" as="geometry" />
        </mxCell>
        <mxCell id="InGdNxkoCFOPjOhd-gFK-10" value="" style="endArrow=classic;html=1;rounded=0;" edge="1" parent="1">
          <mxGeometry width="50" height="50" relative="1" as="geometry">
            <mxPoint x="429.65999999999997" y="730" as="sourcePoint" />
            <mxPoint x="429.65999999999997" y="780" as="targetPoint" />
          </mxGeometry>
        </mxCell>
        <mxCell id="InGdNxkoCFOPjOhd-gFK-11" value="END" style="rounded=1;whiteSpace=wrap;html=1;" vertex="1" parent="1">
          <mxGeometry x="370.17" y="780" width="120" height="60" as="geometry" />
        </mxCell>
      </root>
    </mxGraphModel>
  </diagram>
</mxfile>
